<!--?xml version="1.0" standalone="no"?-->
              <svg id="sw-js-blob-svg" viewBox="0 0 100 100" xmlns="http://www.w3.org/2000/svg" version="1.1">
                    <defs> 
                        <linearGradient id="sw-gradient" x1="0" x2="1" y1="1" y2="0">
                            <stop id="stop1" stop-color="rgba(170, 207, 255, 1)" offset="0%"></stop>
                            <stop id="stop2" stop-color="rgba(16, 47, 88, 1)" offset="100%"></stop>
                        </linearGradient>
                    </defs>
                <path fill="url(#sw-gradient)" d="M21.4,-29.7C26.2,-25.9,27.6,-17.6,27.3,-10.7C27.1,-3.7,25.3,2,23,7C20.7,12,17.9,16.4,14,19.5C10,22.5,5,24.3,-1.8,26.8C-8.6,29.3,-17.3,32.5,-21.4,29.5C-25.6,26.5,-25.2,17.3,-27.3,9.3C-29.3,1.2,-33.8,-5.6,-33.5,-12.3C-33.3,-19.1,-28.4,-25.8,-22.1,-29C-15.7,-32.3,-7.9,-32.1,0.2,-32.4C8.3,-32.7,16.5,-33.4,21.4,-29.7Z" width="100%" height="100%" transform="translate(50 50)" stroke-width="0" style="transition: all 0.3s ease 0s;" stroke="url(#sw-gradient)"></path>
              </svg>