<!--?xml version="1.0" standalone="no"?-->
              <svg id="sw-js-blob-svg" viewBox="0 0 100 100" xmlns="http://www.w3.org/2000/svg" version="1.1">
                    <defs> 
                        <linearGradient id="sw-gradient" x1="0" x2="1" y1="1" y2="0">
                            <stop id="stop1" stop-color="rgba(16, 47, 88, 1)" offset="0%"></stop>
                            <stop id="stop2" stop-color="rgba(170, 207, 255, 1)" offset="100%"></stop>
                        </linearGradient>
                    </defs>
                <path fill="url(#sw-gradient)" d="M17.5,-25.9C21.9,-21,23.9,-14.7,25.9,-8.4C27.9,-2.2,29.9,4.1,30.1,11.6C30.2,19.2,28.5,28,23.2,34.2C17.8,40.4,8.9,44,1.7,41.8C-5.6,39.5,-11.2,31.3,-18.9,25.9C-26.7,20.5,-36.5,17.8,-40.6,11.6C-44.7,5.5,-43.2,-4,-38.8,-11.1C-34.5,-18.3,-27.3,-23,-20.4,-27.1C-13.4,-31.2,-6.7,-34.6,-0.1,-34.6C6.6,-34.5,13.2,-30.9,17.5,-25.9Z" width="100%" height="100%" transform="translate(50 50)" stroke-width="0" style="transition: all 0.3s ease 0s;" stroke="url(#sw-gradient)"></path>
              </svg>